<?xml version="1.0" encoding="utf-8"?><svg xmlns="http://www.w3.org/2000/svg" xmlns:xlink="http://www.w3.org/1999/xlink" width="1536" height="739" preserveAspectRatio="xMidYMid" viewBox="0 0 1536 739" style="z-index:1;margin-right:-1.6px;display:block;background-color:rgb(255, 255, 255);animation-play-state:paused" ><g transform="translate(768,369.5) scale(1,1) translate(-768,-369.5)" style="transform:matrix(1, 0, 0, 1, 0, 0);animation-play-state:paused" ><linearGradient id="lg-0.08795795792755112" x1="0" x2="1" y1="0" y2="0" style="animation-play-state:paused" ><stop stop-color="#ff00ff" offset="0" style="animation-play-state:paused" ></stop>

  
<stop stop-color="#00ffff" offset="1" style="animation-play-state:paused" ></stop></linearGradient>
<path d="M 0 0 L 0 630.645 Q 153.6 576.05 307.2 559.394 T 614.4 523.949 T 921.6 435.307 T 1228.8 403.482 T 1536 269.417 L 1536 0 Z" fill="url(#lg-0.08795795792755112)" opacity="0.4" style="opacity:0.4;animation-play-state:paused" ></path>
<path d="M 0 0 L 0 659.22 Q 153.6 589.775 307.2 551.322 T 614.4 558.595 T 921.6 460.796 T 1228.8 415.835 T 1536 280.883 L 1536 0 Z" fill="url(#lg-0.08795795792755112)" opacity="0.4" style="opacity:0.4;animation-play-state:paused" ></path>
<path d="M 0 0 L 0 690.268 Q 153.6 671.138 307.2 645.359 T 614.4 519.091 T 921.6 513.804 T 1228.8 402.656 T 1536 307.213 L 1536 0 Z" fill="url(#lg-0.08795795792755112)" opacity="0.4" style="opacity:0.4;animation-play-state:paused" ></path>
<path d="M 0 0 L 0 611.253 Q 153.6 687.233 307.2 649.911 T 614.4 536.226 T 921.6 415.692 T 1228.8 389.44 T 1536 305.727 L 1536 0 Z" fill="url(#lg-0.08795795792755112)" opacity="0.4" style="opacity:0.4;animation-play-state:paused" ></path>
<path d="M 0 0 L 0 668.224 Q 153.6 607.412 307.2 581.212 T 614.4 548.34 T 921.6 496.802 T 1228.8 363.477 T 1536 298.85 L 1536 0 Z" fill="url(#lg-0.08795795792755112)" opacity="0.4" style="opacity:0.4;animation-play-state:paused" ></path></g></svg>